{
    "accessors": {
        "ecorche_buffer_accessor_0": {
            "bufferView": "ecorche_buffer_view_0",
            "byteOffset": 0,
            "byteStride": 12,
            "componentType": 5126,
            "count": 42108,
            "max": [
                0.43218767642974854,
                1.2786089181900024,
                0.7834066152572632
            ],
            "min": [
                -0.4414496123790741,
                -1.3320645093917847,
                -0.6119722723960876
            ],
            "type": "VEC3"
        },
        "ecorche_buffer_accessor_1": {
            "bufferView": "ecorche_buffer_view_0",
            "byteOffset": 505296,
            "byteStride": 12,
            "componentType": 5126,
            "count": 42108,
            "max": [
                0.99980628490448,
                0.9999942779541016,
                0.9999849200248718
            ],
            "min": [
                -0.9999914765357971,
                -0.9999587535858154,
                -0.9998950362205505
            ],
            "type": "VEC3"
        },
        "ecorche_buffer_accessor_2": {
            "bufferView": "ecorche_buffer_view_0",
            "byteOffset": 1010592,
            "byteStride": 8,
            "componentType": 5126,
            "count": 42108,
            "max": [
                0.9943493604660034,
                0.9966850280761719
            ],
            "min": [
                0,
                0
            ],
            "type": "VEC2"
        },
        "ecorche_buffer_accessor_3": {
            "bufferView": "ecorche_buffer_view_1",
            "byteOffset": 0,
            "byteStride": 2,
            "componentType": 5123,
            "count": 223383,
            "max": [
                42107
            ],
            "min": [
                0
            ],
            "type": "SCALAR"
        }
    },
    "asset": {
        "profile": {
            "api": "WebGL",
            "version": "1.0.3"
        },
        "version": "1.0"
    },
    "bufferViews": {
        "ecorche_buffer_view_0": {
            "buffer": "ecorche_buffer",
            "byteLength": 1347456,
            "byteOffset": 0,
            "target": 34962
        },
        "ecorche_buffer_view_1": {
            "buffer": "ecorche_buffer",
            "byteLength": 446766,
            "byteOffset": 1347456,
            "target": 34963
        }
    },
    "buffers": {
        "ecorche_buffer": {
            "byteLength": 1794222,
            "type": "arraybuffer",
            "uri": "data:text/plain;base64,"
        }
    },
    "extensionsUsed": [
        "KHR_materials_common"
    ],
    "extras": {
        "lights": {
            "Lamp": {
                "point": {
                    "color": [
                        1.0,
                        1.0,
                        1.0
                    ],
                    "constantAttenuation": 1,
                    "linearAttenuation": 0,
                    "quadraticAttenuation": 0.03333335240683057
                },
                "type": "point"
            }
        }
    },
    "images": {
        "ecorche.jpg": {
            "uri": "ecorche.jpg"
        }
    },
    "materials": {
        "ecorche": {
            "extensions": {
                "KHR_materials_common": {
                    "technique": "PHONG",
                    "values": {
                        "ambient": [
                            0.0,
                            0.0,
                            0.0,
                            1.0
                        ],
                        "diffuse": "Kd",
                        "doubleSided": false,
                        "emission": [
                            0.0,
                            0.0,
                            0.0,
                            1.0
                        ],
                        "shininess": 1,
                        "specular": [
                            0.0,
                            0.0,
                            0.0,
                            1.0
                        ],
                        "transparency": 1.0,
                        "transparent": true
                    }
                }
            }
        }
    },
    "meshes": {
        "ecorche": {
            "name": "ecorche",
            "primitives": [
                {
                    "attributes": {
                        "NORMAL": "ecorche_buffer_accessor_1",
                        "POSITION": "ecorche_buffer_accessor_0",
                        "TEXCOORD_0": "ecorche_buffer_accessor_2"
                    },
                    "indices": "ecorche_buffer_accessor_3",
                    "material": "ecorche",
                    "mode": 4
                }
            ]
        }
    },
    "nodes": {
        "Scene_root": {
            "children": [
                "ecorche"
            ],
            "matrix": [
                0.0,
                0.0,
                -1.0,
                0.0,
                -1.0,
                0.0,
                0.0,
                0.0,
                0.0,
                1.0,
                0.0,
                0.0,
                0.0,
                0.0,
                0.0,
                1.0
            ],
            "name": "Scene_root"
        },
        "ecorche": {
            "children": [],
            "matrix": [
                -0.9997621774673462,
                5.641257416755252e-07,
                -0.021807584911584854,
                0.0,
                -0.02179712802171707,
                -0.0309896357357502,
                0.9992820024490356,
                0.0,
                -0.0006752453627996147,
                0.9995197057723999,
                0.030982278287410736,
                0.0,
                0.0,
                0.0,
                0.0,
                1.0
            ],
            "meshes": [
                "ecorche"
            ],
            "name": "ecorche"
        }
    },
    "samplers": {
        "default": {}
    },
    "scene": "Scene",
    "scenes": {
        "Scene": {
            "extras": {
                "active_camera": "",
                "background_color": [
                    0.05087608844041824,
                    0.05087608844041824,
                    0.05087608844041824
                ],
                "frames_per_second": 24
            },
            "nodes": [
                "Scene_root"
            ]
        }
    },
    "textures": {
        "Kd": {
            "format": 35906,
            "internalFormat": 35906,
            "sampler": "default",
            "source": "ecorche.jpg"
        }
    }
}
