{
  "accessors": [
    {
      "name": "wooden_bust_low_wooden_bust-Mesh_positions",
      "componentType": 5126,
      "count": 12713,
      "min": [
        -0.06066099926829338,
        -0.10716599971055984,
        -0.04980099946260452
      ],
      "max": [
        0.0609470009803772,
        0.10812699794769287,
        0.05373600125312805
      ],
      "type": "VEC3",
      "bufferView": 0,
      "byteOffset": 0
    },
    {
      "name": "wooden_bust_low_wooden_bust-Mesh_normals",
      "componentType": 5126,
      "count": 12713,
      "min": [
        -0.9998000264167786,
        -1,
        -1
      ],
      "max": [
        0.9998000264167786,
        0.9959999918937683,
        1
      ],
      "type": "VEC3",
      "bufferView": 0,
      "byteOffset": 152556
    },
    {
      "name": "wooden_bust_low_wooden_bust-Mesh_texcoords",
      "componentType": 5126,
      "count": 12713,
      "min": [
        0,
        0
      ],
      "max": [
        1,
        1
      ],
      "type": "VEC2",
      "bufferView": 1,
      "byteOffset": 0
    },
    {
      "name": "wooden_bust_low_wooden_bust-Mesh_0_indices",
      "componentType": 5123,
      "count": 54960,
      "min": [
        0
      ],
      "max": [
        12712
      ],
      "type": "SCALAR",
      "bufferView": 2,
      "byteOffset": 0
    }
  ],
  "asset": {
    "generator": "obj2gltf",
    "version": "2.0"
  },
  "buffers": [
    {
      "name": "woody",
      "byteLength": 3078892,
      "uri": "data:application/octet-stream;base64,"
    }
  ],
  "bufferViews": [
    {
      "name": "bufferView_0",
      "buffer": 0,
      "byteLength": 305112,
      "byteOffset": 0,
      "byteStride": 12,
      "target": 34962
    },
    {
      "name": "bufferView_1",
      "buffer": 0,
      "byteLength": 101704,
      "byteOffset": 305112,
      "byteStride": 8,
      "target": 34962
    },
    {
      "name": "bufferView_2",
      "buffer": 0,
      "byteLength": 109920,
      "byteOffset": 406816,
      "target": 34963
    },
    {
      "buffer": 0,
      "byteOffset": 516736,
      "byteLength": 1392209
    },
    {
      "buffer": 0,
      "byteOffset": 1908945,
      "byteLength": 1169946
    }
  ],
  "images": [
    {
      "name": "woody_diffuse",
      "mimeType": "image/png",
      "bufferView": 3
    },
    {
      "name": "woody_normal",
      "mimeType": "image/png",
      "bufferView": 4
    }
  ],
  "materials": [
    {
      "name": "normals",
      "pbrMetallicRoughness": {
        "baseColorTexture": {
          "index": 0
        },
        "baseColorFactor": [
          1,
          1,
          1,
          1
        ],
        "metallicFactor": 0,
        "roughnessFactor": 1
      },
      "normalTexture": {
        "index": 1
      },
      "emissiveFactor": [
        0,
        0,
        0
      ],
      "alphaMode": "OPAQUE",
      "doubleSided": false
    }
  ],
  "meshes": [
    {
      "name": "wooden_bust_low_wooden_bust-Mesh",
      "primitives": [
        {
          "attributes": {
            "POSITION": 0,
            "NORMAL": 1,
            "TEXCOORD_0": 2
          },
          "indices": 3,
          "material": 0,
          "mode": 4
        }
      ]
    }
  ],
  "nodes": [
    {
      "name": "wooden_bust_low_wooden_bust",
      "mesh": 0
    }
  ],
  "samplers": [
    {
      "magFilter": 9729,
      "minFilter": 9986,
      "wrapS": 10497,
      "wrapT": 10497
    }
  ],
  "scene": 0,
  "scenes": [
    {
      "nodes": [
        0
      ]
    }
  ],
  "textures": [
    {
      "name": "woody_diffuse",
      "sampler": 0,
      "source": 0
    },
    {
      "name": "woody_normal",
      "sampler": 0,
      "source": 1
    }
  ]
}
